<svg xmlns="http://www.w3.org/2000/svg" xmlns:xlink="http://www.w3.org/1999/xlink" width="1000" zoomAndPan="magnify" viewBox="0 0 750 749.999995" height="1000" preserveAspectRatio="xMidYMid meet">
    <path style="stroke:none;fill-rule:nonzero;fill:#353535;fill-opacity:1;" d="M 375 0.105469 C 581.773438 0.105469 750 168.332031 750 375 C 750 581.667969 581.773438 750 375 750 C 168.226562 750 0.105469 581.773438 0.105469 375 C 0.105469 168.226562 168.332031 0 375 0 Z M 375 718.574219 C 564.488281 718.574219 718.574219 564.488281 718.574219 375 C 718.574219 185.511719 564.488281 31.425781 375 31.425781 C 185.511719 31.425781 31.53125 185.511719 31.53125 375 C 31.53125 564.488281 185.613281 718.574219 375 718.574219 Z M 375 718.574219"></path>
    <path style="stroke:none;fill-rule:nonzero;fill:#353535;fill-opacity:1;" d="M 366.410156 202.058594 C 370.390625 202.058594 374.476562 203.632812 377.515625 206.667969 C 383.695312 212.847656 383.695312 222.800781 377.515625 228.875 L 240.503906 365.886719 L 377.515625 502.898438 C 383.695312 509.078125 383.695312 519.027344 377.515625 525.105469 C 371.332031 531.285156 361.382812 531.285156 355.308594 525.105469 L 213.898438 383.695312 C 209.078125 378.875 206.460938 372.589844 206.460938 365.886719 C 206.460938 359.183594 209.078125 352.792969 213.898438 348.078125 L 355.308594 206.667969 C 358.34375 203.632812 362.429688 202.058594 366.410156 202.058594 Z M 236.101562 361.59375 Z M 236.101562 361.59375"></path>
    <path style="stroke:none;fill-rule:nonzero;fill:#353535;fill-opacity:1;" d="M 222.382812 350.175781 L 525.3125 350.175781 C 534.007812 350.175781 541.027344 357.191406 541.027344 365.886719 C 541.027344 374.582031 534.007812 381.597656 525.3125 381.597656 L 222.382812 381.597656 C 213.6875 381.597656 206.667969 374.582031 206.667969 365.886719 C 206.667969 357.191406 213.6875 350.175781 222.382812 350.175781 Z M 222.382812 350.175781"></path>
</svg>