<svg xmlns="http://www.w3.org/2000/svg" xmlns:xlink="http://www.w3.org/1999/xlink" width="1000" zoomAndPan="magnify" viewBox="0 0 750 749.999995" height="1000" preserveAspectRatio="xMidYMid meet">
    <path style="stroke:none;fill-rule:nonzero;fill:#353535;fill-opacity:1;" d="M 375 749.894531 C 168.226562 749.894531 0 581.667969 0 375 C 0 168.332031 168.226562 0 375 0 C 581.773438 0 749.894531 168.226562 749.894531 375 C 749.894531 581.773438 581.667969 750 375 750 Z M 375 31.425781 C 185.507812 31.425781 31.425781 185.511719 31.425781 375 C 31.425781 564.488281 185.507812 718.574219 375 718.574219 C 564.488281 718.574219 718.46875 564.488281 718.46875 375 C 718.46875 185.511719 564.386719 31.425781 375 31.425781 Z M 375 31.425781"></path>
    <path style="stroke:none;fill-rule:nonzero;fill:#353535;fill-opacity:1;" d="M 383.589844 547.941406 C 379.609375 547.941406 375.523438 546.367188 372.484375 543.332031 C 366.304688 537.152344 366.304688 527.199219 372.484375 521.125 L 509.496094 384.113281 L 372.484375 247.101562 C 366.304688 240.921875 366.304688 230.972656 372.484375 224.894531 C 378.667969 218.714844 388.617188 218.714844 394.691406 224.894531 L 536.101562 366.304688 C 540.921875 371.125 543.539062 377.410156 543.539062 384.113281 C 543.539062 390.816406 540.921875 397.207031 536.101562 401.921875 L 394.691406 543.332031 C 391.65625 546.367188 387.570312 547.941406 383.589844 547.941406 Z M 513.898438 388.40625 Z M 513.898438 388.40625"></path>
    <path style="stroke:none;fill-rule:nonzero;fill:#353535;fill-opacity:1;" d="M 527.617188 399.824219 L 224.6875 399.824219 C 215.992188 399.824219 208.972656 392.808594 208.972656 384.113281 C 208.972656 375.417969 215.992188 368.402344 224.6875 368.402344 L 527.617188 368.402344 C 536.3125 368.402344 543.332031 375.417969 543.332031 384.113281 C 543.332031 392.808594 536.3125 399.824219 527.617188 399.824219 Z M 527.617188 399.824219"></path>
</svg>