<svg xmlns="http://www.w3.org/2000/svg" xmlns:xlink="http://www.w3.org/1999/xlink" width="1000" zoomAndPan="magnify" viewBox="0 0 750 749.999995" height="1000" preserveAspectRatio="xMidYMid meet"><defs><clipPath id="d3ae79e7f9"><path d="M 130.339844 130.339844 L 619.660156 130.339844 L 619.660156 619.660156 L 130.339844 619.660156 Z M 130.339844 130.339844 "></path></clipPath><clipPath id="e712f7a0e9"><path d="M 152.839844 130.339844 L 597.160156 130.339844 C 603.128906 130.339844 608.851562 132.710938 613.070312 136.929688 C 617.289062 141.148438 619.660156 146.871094 619.660156 152.839844 L 619.660156 597.160156 C 619.660156 603.128906 617.289062 608.851562 613.070312 613.070312 C 608.851562 617.289062 603.128906 619.660156 597.160156 619.660156 L 152.839844 619.660156 C 140.414062 619.660156 130.339844 609.585938 130.339844 597.160156 L 130.339844 152.839844 C 130.339844 140.414062 140.414062 130.339844 152.839844 130.339844 Z M 152.839844 130.339844 "></path></clipPath><clipPath id="7c3c97a169"><path d="M 259.78125 2 L 745 2 L 745 523 L 259.78125 523 Z M 259.78125 2 "></path></clipPath></defs><g id="3706c4cf3f"><rect x="0" width="750" y="0" height="749.999995" style="fill:#ffffff;fill-opacity:1;stroke:none;"></rect><rect x="0" width="750" y="0" height="749.999995" style="fill:#ffffff;fill-opacity:1;stroke:none;"></rect><g clip-rule="nonzero" clip-path="url(#d3ae79e7f9)"><g clip-rule="nonzero" clip-path="url(#e712f7a0e9)"><path style=" stroke:none;fill-rule:nonzero;fill:#fec605;fill-opacity:1;" d="M 130.339844 130.339844 L 619.660156 130.339844 L 619.660156 619.660156 L 130.339844 619.660156 Z M 130.339844 130.339844 "></path></g></g><g style="fill:#353535;fill-opacity:1;"><g transform="translate(-21.523125, 749.592336)"><path style="stroke:none" d="M 97.8125 -511.875 C 102.226562 -513.820312 107.378906 -514.796875 113.265625 -514.796875 L 196.359375 -514.796875 C 204.703125 -514.796875 208.875 -510.632812 208.875 -502.3125 L 208.875 -12.5 C 208.875 -4.164062 204.703125 0 196.359375 0 L 117.671875 0 C 109.335938 0 105.171875 -4.164062 105.171875 -12.5 L 105.171875 -413.328125 C 105.171875 -414.796875 104.679688 -416.019531 103.703125 -417 C 102.722656 -417.976562 101.492188 -418.222656 100.015625 -417.734375 L 35.296875 -404.5 L 32.359375 -404.5 C 25.003906 -404.5 21.328125 -408.175781 21.328125 -415.53125 L 21.328125 -471.421875 C 21.328125 -478.773438 24.515625 -483.4375 30.890625 -485.40625 Z M 97.8125 -511.875 "></path></g></g><g clip-rule="nonzero" clip-path="url(#7c3c97a169)"><path style=" stroke:none;fill-rule:evenodd;fill:#353535;fill-opacity:1;" d="M 294.425781 57.613281 C 287.183594 60.160156 280.535156 64.316406 275.007812 69.859375 C 265.253906 79.59375 259.78125 92.8125 259.78125 106.601562 C 259.78125 187.71875 259.78125 389.246094 259.78125 470.367188 C 259.78125 484.15625 265.253906 497.371094 275.007812 507.105469 C 284.742188 516.859375 297.960938 522.332031 311.746094 522.332031 L 571.582031 522.332031 C 585.371094 522.332031 598.585938 516.859375 608.320312 507.105469 C 613.863281 501.582031 618.023438 494.929688 620.570312 487.6875 L 363.714844 487.6875 C 345.335938 487.6875 327.71875 480.394531 314.726562 467.386719 C 301.71875 454.394531 294.425781 436.777344 294.425781 418.398438 Z M 675.515625 309.980469 L 633.90625 382.058594 C 632.191406 385.019531 629.644531 387.410156 626.578125 388.917969 L 570.59375 416.597656 C 565.398438 419.179688 559.265625 418.972656 554.257812 416.078125 C 549.234375 413.1875 545.996094 407.972656 545.632812 402.1875 L 541.613281 339.859375 C 541.386719 336.449219 542.183594 333.054688 543.898438 330.089844 L 665.15625 120.078125 C 667.980469 115.15625 671.496094 110.878906 675.515625 107.292969 L 675.515625 54.632812 C 675.515625 40.84375 670.039062 27.628906 660.289062 17.894531 C 650.554688 8.140625 637.335938 2.667969 623.546875 2.667969 L 363.714844 2.667969 C 349.925781 2.667969 336.710938 8.140625 326.972656 17.894531 C 317.222656 27.628906 311.746094 40.84375 311.746094 54.632812 C 311.746094 135.753906 311.746094 337.28125 311.746094 418.398438 C 311.746094 432.1875 317.222656 445.40625 326.972656 455.140625 C 336.710938 464.894531 349.925781 470.367188 363.714844 470.367188 L 623.546875 470.367188 C 637.335938 470.367188 650.554688 464.894531 660.289062 455.140625 C 670.039062 445.40625 675.515625 432.1875 675.515625 418.398438 Z M 662.367188 159.535156 L 558.902344 338.753906 L 562.921875 401.078125 L 618.90625 373.398438 L 722.371094 194.179688 Z M 415.679688 383.753906 L 519.613281 383.753906 C 529.175781 383.753906 536.9375 375.996094 536.9375 366.433594 C 536.9375 356.871094 529.175781 349.109375 519.613281 349.109375 L 415.679688 349.109375 C 406.121094 349.109375 398.359375 356.871094 398.359375 366.433594 C 398.359375 375.996094 406.121094 383.753906 415.679688 383.753906 Z M 415.679688 297.144531 L 536.9375 297.144531 C 546.5 297.144531 554.257812 289.382812 554.257812 279.820312 C 554.257812 270.261719 546.5 262.5 536.9375 262.5 L 415.679688 262.5 C 406.121094 262.5 398.359375 270.261719 398.359375 279.820312 C 398.359375 289.382812 406.121094 297.144531 415.679688 297.144531 Z M 415.679688 210.535156 L 571.582031 210.535156 C 581.144531 210.535156 588.902344 202.773438 588.902344 193.210938 C 588.902344 183.648438 581.144531 175.890625 571.582031 175.890625 L 415.679688 175.890625 C 406.121094 175.890625 398.359375 183.648438 398.359375 193.210938 C 398.359375 202.773438 406.121094 210.535156 415.679688 210.535156 Z M 671.496094 143.738281 L 731.5 178.382812 L 740.160156 163.382812 C 749.722656 146.804688 744.042969 125.621094 727.480469 116.058594 C 710.902344 106.480469 689.71875 112.160156 680.15625 128.738281 Z M 415.679688 123.921875 L 571.582031 123.921875 C 581.144531 123.921875 588.902344 116.160156 588.902344 106.601562 C 588.902344 97.039062 581.144531 89.277344 571.582031 89.277344 L 415.679688 89.277344 C 406.121094 89.277344 398.359375 97.039062 398.359375 106.601562 C 398.359375 116.160156 406.121094 123.921875 415.679688 123.921875 Z M 415.679688 123.921875 "></path></g></g></svg>