<svg xmlns="http://www.w3.org/2000/svg" xmlns:xlink="http://www.w3.org/1999/xlink" width="1000" zoomAndPan="magnify" viewBox="0 0 750 749.999995" height="1000" preserveAspectRatio="xMidYMid meet"><defs><clipPath id="203cdea8cf"><path d="M 130.339844 130.339844 L 619.660156 130.339844 L 619.660156 619.660156 L 130.339844 619.660156 Z M 130.339844 130.339844 "></path></clipPath><clipPath id="7fd2e3c121"><path d="M 152.839844 130.339844 L 597.160156 130.339844 C 603.128906 130.339844 608.851562 132.710938 613.070312 136.929688 C 617.289062 141.148438 619.660156 146.871094 619.660156 152.839844 L 619.660156 597.160156 C 619.660156 603.128906 617.289062 608.851562 613.070312 613.070312 C 608.851562 617.289062 603.128906 619.660156 597.160156 619.660156 L 152.839844 619.660156 C 140.414062 619.660156 130.339844 609.585938 130.339844 597.160156 L 130.339844 152.839844 C 130.339844 140.414062 140.414062 130.339844 152.839844 130.339844 Z M 152.839844 130.339844 "></path></clipPath><clipPath id="7942d5e390"><path d="M 284.472656 28.667969 L 750 28.667969 L 750 494.417969 L 284.472656 494.417969 Z M 284.472656 28.667969 "></path></clipPath></defs><g id="a71fdde2f1"><rect x="0" width="750" y="0" height="749.999995" style="fill:#ffffff;fill-opacity:1;stroke:none;"></rect><rect x="0" width="750" y="0" height="749.999995" style="fill:#ffffff;fill-opacity:1;stroke:none;"></rect><g clip-rule="nonzero" clip-path="url(#203cdea8cf)"><g clip-rule="nonzero" clip-path="url(#7fd2e3c121)"><path style=" stroke:none;fill-rule:nonzero;fill:#fec605;fill-opacity:1;" d="M 130.339844 130.339844 L 619.660156 130.339844 L 619.660156 619.660156 L 130.339844 619.660156 Z M 130.339844 130.339844 "></path></g></g><g style="fill:#353535;fill-opacity:1;"><g transform="translate(-26.545555, 749.37491)"><path style="stroke:none" d="M 39.640625 0 C 32.390625 0 28.765625 -3.625 28.765625 -10.875 L 28.765625 -64.5625 C 28.765625 -69.25 30.679688 -73.726562 34.515625 -78 C 51.992188 -95.46875 70.535156 -114.960938 90.140625 -136.484375 C 109.742188 -158.003906 122.957031 -172.390625 129.78125 -179.640625 C 149.382812 -201.796875 164.085938 -217.988281 173.890625 -228.21875 C 212.671875 -271.269531 232.0625 -303.234375 232.0625 -324.109375 C 232.0625 -339.023438 226.734375 -351.28125 216.078125 -360.875 C 205.421875 -370.46875 191.570312 -375.265625 174.53125 -375.265625 C 157.476562 -375.265625 143.625 -370.46875 132.96875 -360.875 C 122.3125 -351.28125 116.984375 -338.601562 116.984375 -322.84375 L 116.984375 -310.046875 C 116.984375 -302.804688 113.363281 -299.1875 106.125 -299.1875 L 37.078125 -299.1875 C 29.828125 -299.1875 26.203125 -302.804688 26.203125 -310.046875 L 26.203125 -336.90625 C 27.484375 -359.914062 34.726562 -380.265625 47.9375 -397.953125 C 61.15625 -415.640625 78.738281 -429.171875 100.6875 -438.546875 C 122.632812 -447.921875 147.25 -452.609375 174.53125 -452.609375 C 204.78125 -452.609375 231.09375 -446.960938 253.46875 -435.671875 C 275.84375 -424.378906 293.101562 -409.140625 305.25 -389.953125 C 317.394531 -370.773438 323.46875 -349.46875 323.46875 -326.03125 C 323.46875 -308.132812 318.992188 -289.804688 310.046875 -271.046875 C 301.097656 -252.296875 287.675781 -232.054688 269.78125 -210.328125 C 252.726562 -189.441406 223.320312 -157.265625 181.5625 -113.796875 C 181.132812 -113.367188 171.117188 -102.710938 151.515625 -81.828125 C 150.234375 -80.972656 149.804688 -80.015625 150.234375 -78.953125 C 150.660156 -77.890625 151.722656 -77.359375 153.421875 -77.359375 L 320.921875 -77.359375 C 328.160156 -77.359375 331.78125 -73.734375 331.78125 -66.484375 L 331.78125 -10.875 C 331.78125 -3.625 328.160156 0 320.921875 0 Z M 39.640625 0 "></path></g></g><g clip-rule="nonzero" clip-path="url(#7942d5e390)"><path style=" stroke:none;fill-rule:nonzero;fill:#353535;fill-opacity:1;" d="M 750 211.554688 L 750 377.8125 C 750 379.449219 749.917969 381.078125 749.757812 382.703125 C 749.597656 384.328125 749.359375 385.941406 749.039062 387.546875 C 748.722656 389.148438 748.324219 390.730469 747.851562 392.292969 C 747.375 393.855469 746.828125 395.390625 746.203125 396.902344 C 745.578125 398.410156 744.878906 399.886719 744.109375 401.328125 C 743.339844 402.765625 742.5 404.167969 741.59375 405.523438 C 740.683594 406.882812 739.714844 408.195312 738.675781 409.457031 C 737.640625 410.71875 736.546875 411.929688 735.390625 413.082031 C 734.234375 414.238281 733.027344 415.335938 731.761719 416.371094 C 730.5 417.40625 729.191406 418.378906 727.832031 419.285156 C 726.472656 420.195312 725.074219 421.03125 723.632812 421.800781 C 722.191406 422.574219 720.71875 423.269531 719.207031 423.894531 C 717.699219 424.519531 716.164062 425.070312 714.601562 425.542969 C 713.035156 426.019531 711.453125 426.414062 709.851562 426.734375 C 708.25 427.050781 706.636719 427.292969 705.011719 427.453125 C 703.382812 427.613281 701.753906 427.691406 700.121094 427.691406 L 700.121094 477.570312 C 700.117188 478.386719 700.054688 479.199219 699.929688 480.003906 C 699.804688 480.8125 699.625 481.605469 699.382812 482.382812 C 699.144531 483.164062 698.847656 483.921875 698.496094 484.660156 C 698.144531 485.394531 697.738281 486.101562 697.28125 486.777344 C 696.828125 487.457031 696.324219 488.09375 695.773438 488.699219 C 695.222656 489.300781 694.632812 489.859375 694 490.375 C 693.367188 490.890625 692.699219 491.359375 691.996094 491.773438 C 691.296875 492.191406 690.566406 492.554688 689.8125 492.867188 C 687.8125 493.808594 685.707031 494.253906 683.496094 494.195312 C 681.285156 494.207031 679.15625 493.796875 677.113281 492.960938 C 675.066406 492.125 673.257812 490.929688 671.691406 489.375 L 610.175781 427.691406 L 434.105469 427.691406 C 432.546875 427.695312 430.988281 427.628906 429.433594 427.484375 C 427.882812 427.34375 426.339844 427.128906 424.804688 426.84375 C 423.273438 426.554688 421.753906 426.199219 420.253906 425.769531 C 418.753906 425.339844 417.277344 424.84375 415.824219 424.273438 C 414.371094 423.707031 412.949219 423.074219 411.554688 422.371094 C 410.164062 421.671875 408.804688 420.90625 407.484375 420.078125 C 406.160156 419.25 404.882812 418.359375 403.644531 417.414062 C 402.40625 416.464844 401.214844 415.460938 400.070312 414.398438 C 398.925781 413.339844 397.832031 412.226562 396.792969 411.066406 C 395.753906 409.902344 394.769531 408.691406 393.84375 407.4375 C 392.917969 406.183594 392.050781 404.886719 391.246094 403.550781 C 390.441406 402.214844 389.699219 400.84375 389.023438 399.4375 C 388.347656 398.03125 387.738281 396.597656 387.199219 395.136719 C 386.65625 393.671875 386.183594 392.1875 385.78125 390.679688 C 385.378906 389.171875 385.046875 387.652344 384.789062 386.113281 C 384.527344 384.574219 384.339844 383.027344 384.226562 381.472656 C 384.976562 381.015625 385.640625 380.460938 386.222656 379.808594 L 438.09375 327.9375 L 600.363281 327.9375 C 601.726562 327.9375 603.085938 327.902344 604.445312 327.835938 C 605.804688 327.769531 607.160156 327.667969 608.511719 327.535156 C 609.867188 327.402344 611.21875 327.234375 612.5625 327.035156 C 613.910156 326.835938 615.25 326.605469 616.582031 326.339844 C 617.917969 326.074219 619.246094 325.777344 620.5625 325.445312 C 621.882812 325.113281 623.195312 324.75 624.496094 324.355469 C 625.796875 323.960938 627.089844 323.535156 628.371094 323.078125 C 629.652344 322.617188 630.921875 322.128906 632.175781 321.609375 C 633.433594 321.085938 634.675781 320.535156 635.90625 319.953125 C 637.136719 319.375 638.351562 318.761719 639.550781 318.121094 C 640.753906 317.480469 641.933594 316.808594 643.101562 316.109375 C 644.269531 315.410156 645.417969 314.683594 646.550781 313.925781 C 647.679688 313.171875 648.792969 312.386719 649.886719 311.578125 C 650.976562 310.765625 652.050781 309.929688 653.101562 309.066406 C 654.152344 308.203125 655.183594 307.316406 656.191406 306.402344 C 657.199219 305.488281 658.183594 304.550781 659.148438 303.589844 C 660.109375 302.625 661.046875 301.640625 661.960938 300.632812 C 662.875 299.625 663.761719 298.59375 664.625 297.542969 C 665.488281 296.492188 666.324219 295.417969 667.136719 294.328125 C 667.945312 293.234375 668.730469 292.121094 669.484375 290.992188 C 670.242188 289.859375 670.96875 288.710938 671.667969 287.542969 C 672.367188 286.375 673.039062 285.195312 673.679688 283.992188 C 674.320312 282.792969 674.933594 281.578125 675.511719 280.347656 C 676.09375 279.121094 676.644531 277.875 677.167969 276.617188 C 677.6875 275.363281 678.175781 274.09375 678.636719 272.8125 C 679.09375 271.53125 679.519531 270.238281 679.914062 268.9375 C 680.308594 267.636719 680.671875 266.324219 681.003906 265.003906 C 681.335938 263.6875 681.632812 262.359375 681.898438 261.023438 C 682.164062 259.691406 682.394531 258.351562 682.59375 257.003906 C 682.792969 255.660156 682.960938 254.308594 683.09375 252.953125 C 683.226562 251.601562 683.328125 250.246094 683.394531 248.886719 C 683.460938 247.527344 683.496094 246.167969 683.496094 244.804688 L 683.496094 161.675781 L 700.121094 161.675781 C 701.753906 161.675781 703.382812 161.757812 705.011719 161.917969 C 706.636719 162.078125 708.25 162.316406 709.851562 162.636719 C 711.453125 162.953125 713.035156 163.351562 714.601562 163.824219 C 716.164062 164.296875 717.699219 164.847656 719.207031 165.472656 C 720.71875 166.097656 722.191406 166.796875 723.632812 167.566406 C 725.074219 168.335938 726.472656 169.175781 727.832031 170.082031 C 729.191406 170.988281 730.5 171.960938 731.761719 173 C 733.027344 174.035156 734.234375 175.128906 735.390625 176.285156 C 736.546875 177.441406 737.640625 178.648438 738.675781 179.914062 C 739.714844 181.175781 740.683594 182.484375 741.59375 183.84375 C 742.5 185.203125 743.339844 186.601562 744.109375 188.042969 C 744.878906 189.484375 745.578125 190.957031 746.203125 192.46875 C 746.828125 193.976562 747.375 195.511719 747.851562 197.074219 C 748.324219 198.640625 748.722656 200.222656 749.039062 201.824219 C 749.359375 203.425781 749.597656 205.039062 749.757812 206.664062 C 749.917969 208.292969 750 209.921875 750 211.554688 Z M 424.296875 294.683594 L 362.78125 356.367188 C 361.210938 357.921875 359.402344 359.117188 357.359375 359.953125 C 355.3125 360.789062 353.183594 361.199219 350.976562 361.1875 C 348.765625 361.246094 346.65625 360.800781 344.65625 359.859375 C 343.902344 359.546875 343.175781 359.183594 342.472656 358.765625 C 341.773438 358.351562 341.105469 357.882812 340.472656 357.367188 C 339.839844 356.851562 339.246094 356.292969 338.699219 355.691406 C 338.148438 355.085938 337.644531 354.449219 337.1875 353.769531 C 336.730469 353.09375 336.328125 352.386719 335.976562 351.652344 C 335.625 350.914062 335.328125 350.15625 335.085938 349.375 C 334.847656 348.597656 334.664062 347.804688 334.539062 346.996094 C 334.417969 346.191406 334.351562 345.378906 334.347656 344.5625 L 334.347656 294.683594 C 332.714844 294.683594 331.085938 294.605469 329.460938 294.445312 C 327.835938 294.285156 326.222656 294.042969 324.617188 293.726562 C 323.015625 293.40625 321.433594 293.011719 319.871094 292.535156 C 318.308594 292.0625 316.769531 291.511719 315.261719 290.886719 C 313.753906 290.261719 312.277344 289.566406 310.835938 288.792969 C 309.394531 288.023438 307.996094 287.1875 306.640625 286.277344 C 305.28125 285.371094 303.96875 284.398438 302.707031 283.363281 C 301.445312 282.328125 300.234375 281.230469 299.082031 280.074219 C 297.925781 278.921875 296.828125 277.710938 295.792969 276.449219 C 294.757812 275.1875 293.785156 273.875 292.878906 272.515625 C 291.96875 271.160156 291.132812 269.757812 290.359375 268.320312 C 289.589844 266.878906 288.894531 265.402344 288.269531 263.894531 C 287.644531 262.382812 287.09375 260.847656 286.621094 259.285156 C 286.144531 257.722656 285.75 256.140625 285.429688 254.539062 C 285.109375 252.933594 284.871094 251.320312 284.710938 249.695312 C 284.550781 248.070312 284.472656 246.441406 284.472656 244.804688 L 284.472656 78.546875 C 284.472656 76.914062 284.550781 75.285156 284.710938 73.65625 C 284.871094 72.03125 285.109375 70.417969 285.429688 68.816406 C 285.75 67.214844 286.144531 65.632812 286.621094 64.066406 C 287.09375 62.503906 287.644531 60.96875 288.269531 59.460938 C 288.894531 57.949219 289.589844 56.476562 290.359375 55.035156 C 291.132812 53.59375 291.96875 52.195312 292.878906 50.835938 C 293.785156 49.476562 294.757812 48.167969 295.792969 46.90625 C 296.828125 45.640625 297.925781 44.433594 299.082031 43.277344 C 300.234375 42.121094 301.445312 41.027344 302.707031 39.992188 C 303.96875 38.953125 305.28125 37.980469 306.640625 37.074219 C 307.996094 36.167969 309.394531 35.328125 310.835938 34.558594 C 312.277344 33.789062 313.753906 33.089844 315.261719 32.464844 C 316.769531 31.839844 318.308594 31.289062 319.871094 30.816406 C 321.433594 30.34375 323.015625 29.945312 324.617188 29.628906 C 326.222656 29.308594 327.835938 29.070312 329.460938 28.910156 C 331.085938 28.75 332.714844 28.667969 334.347656 28.667969 L 600.363281 28.667969 C 602 28.667969 603.628906 28.75 605.253906 28.910156 C 606.878906 29.070312 608.492188 29.308594 610.097656 29.628906 C 611.699219 29.945312 613.28125 30.34375 614.84375 30.816406 C 616.40625 31.289062 617.941406 31.839844 619.453125 32.464844 C 620.960938 33.089844 622.4375 33.789062 623.878906 34.558594 C 625.316406 35.328125 626.71875 36.167969 628.074219 37.074219 C 629.433594 37.980469 630.746094 38.953125 632.007812 39.992188 C 633.269531 41.027344 634.480469 42.121094 635.632812 43.277344 C 636.789062 44.433594 637.886719 45.640625 638.921875 46.90625 C 639.957031 48.167969 640.929688 49.476562 641.835938 50.835938 C 642.746094 52.195312 643.582031 53.59375 644.351562 55.035156 C 645.125 56.476562 645.820312 57.949219 646.445312 59.460938 C 647.070312 60.96875 647.621094 62.503906 648.09375 64.066406 C 648.570312 65.632812 648.964844 67.214844 649.285156 68.816406 C 649.601562 70.417969 649.84375 72.03125 650.003906 73.65625 C 650.164062 75.285156 650.242188 76.914062 650.242188 78.546875 L 650.242188 244.804688 C 650.242188 246.441406 650.164062 248.070312 650.003906 249.695312 C 649.84375 251.320312 649.601562 252.933594 649.285156 254.539062 C 648.964844 256.140625 648.570312 257.722656 648.09375 259.285156 C 647.621094 260.847656 647.070312 262.382812 646.445312 263.894531 C 645.820312 265.402344 645.125 266.878906 644.351562 268.320312 C 643.582031 269.757812 642.746094 271.160156 641.835938 272.515625 C 640.929688 273.875 639.957031 275.1875 638.921875 276.449219 C 637.886719 277.710938 636.789062 278.921875 635.632812 280.074219 C 634.480469 281.230469 633.269531 282.328125 632.007812 283.363281 C 630.746094 284.398438 629.433594 285.371094 628.074219 286.277344 C 626.71875 287.1875 625.316406 288.023438 623.878906 288.792969 C 622.4375 289.566406 620.960938 290.261719 619.453125 290.886719 C 617.941406 291.511719 616.40625 292.0625 614.84375 292.535156 C 613.28125 293.011719 611.699219 293.40625 610.097656 293.726562 C 608.492188 294.042969 606.878906 294.285156 605.253906 294.445312 C 603.628906 294.605469 602 294.683594 600.363281 294.683594 Z M 533.859375 161.675781 C 533.859375 162.222656 533.886719 162.765625 533.941406 163.304688 C 533.996094 163.847656 534.074219 164.386719 534.179688 164.921875 C 534.285156 165.453125 534.417969 165.980469 534.578125 166.503906 C 534.734375 167.023438 534.917969 167.535156 535.125 168.039062 C 535.335938 168.542969 535.566406 169.035156 535.824219 169.515625 C 536.082031 169.996094 536.359375 170.460938 536.664062 170.914062 C 536.964844 171.367188 537.289062 171.804688 537.636719 172.222656 C 537.980469 172.644531 538.347656 173.046875 538.730469 173.433594 C 539.117188 173.816406 539.519531 174.183594 539.941406 174.527344 C 540.359375 174.875 540.796875 175.199219 541.25 175.5 C 541.703125 175.804688 542.167969 176.082031 542.648438 176.339844 C 543.128906 176.597656 543.621094 176.828125 544.125 177.035156 C 544.628906 177.246094 545.140625 177.429688 545.660156 177.585938 C 546.183594 177.746094 546.710938 177.875 547.242188 177.984375 C 547.777344 178.089844 548.316406 178.167969 548.859375 178.222656 C 549.398438 178.277344 549.941406 178.300781 550.488281 178.300781 C 551.03125 178.300781 551.574219 178.277344 552.117188 178.222656 C 552.660156 178.167969 553.195312 178.089844 553.730469 177.984375 C 554.265625 177.875 554.792969 177.746094 555.3125 177.585938 C 555.835938 177.429688 556.347656 177.246094 556.847656 177.035156 C 557.351562 176.828125 557.84375 176.597656 558.324219 176.339844 C 558.804688 176.082031 559.269531 175.804688 559.722656 175.5 C 560.175781 175.199219 560.613281 174.875 561.035156 174.527344 C 561.457031 174.183594 561.859375 173.816406 562.242188 173.433594 C 562.628906 173.046875 562.992188 172.644531 563.339844 172.222656 C 563.683594 171.804688 564.007812 171.367188 564.3125 170.914062 C 564.613281 170.460938 564.894531 169.996094 565.148438 169.515625 C 565.40625 169.035156 565.640625 168.542969 565.847656 168.039062 C 566.054688 167.535156 566.238281 167.023438 566.398438 166.503906 C 566.554688 165.980469 566.6875 165.453125 566.792969 164.921875 C 566.898438 164.386719 566.980469 163.847656 567.03125 163.304688 C 567.085938 162.765625 567.113281 162.222656 567.113281 161.675781 C 567.113281 161.132812 567.085938 160.589844 567.03125 160.046875 C 566.980469 159.503906 566.898438 158.96875 566.792969 158.433594 C 566.6875 157.898438 566.554688 157.371094 566.398438 156.851562 C 566.238281 156.328125 566.054688 155.816406 565.847656 155.3125 C 565.640625 154.8125 565.40625 154.320312 565.148438 153.839844 C 564.894531 153.359375 564.613281 152.890625 564.3125 152.441406 C 564.007812 151.988281 563.683594 151.550781 563.339844 151.128906 C 562.992188 150.707031 562.628906 150.304688 562.242188 149.921875 C 561.859375 149.535156 561.457031 149.171875 561.035156 148.824219 C 560.613281 148.480469 560.175781 148.15625 559.722656 147.851562 C 559.269531 147.550781 558.804688 147.269531 558.324219 147.015625 C 557.84375 146.757812 557.351562 146.523438 556.847656 146.316406 C 556.347656 146.109375 555.835938 145.925781 555.3125 145.765625 C 554.792969 145.609375 554.265625 145.476562 553.730469 145.371094 C 553.195312 145.265625 552.660156 145.183594 552.117188 145.128906 C 551.574219 145.078125 551.03125 145.050781 550.488281 145.050781 C 549.941406 145.050781 549.398438 145.078125 548.859375 145.128906 C 548.316406 145.183594 547.777344 145.265625 547.242188 145.371094 C 546.710938 145.476562 546.183594 145.609375 545.660156 145.765625 C 545.140625 145.925781 544.628906 146.109375 544.125 146.316406 C 543.621094 146.523438 543.128906 146.757812 542.648438 147.015625 C 542.167969 147.269531 541.703125 147.550781 541.25 147.851562 C 540.796875 148.15625 540.359375 148.480469 539.941406 148.824219 C 539.519531 149.171875 539.117188 149.535156 538.730469 149.921875 C 538.347656 150.304688 537.980469 150.707031 537.636719 151.128906 C 537.289062 151.550781 536.964844 151.988281 536.664062 152.441406 C 536.359375 152.890625 536.082031 153.359375 535.824219 153.839844 C 535.566406 154.320312 535.335938 154.8125 535.125 155.3125 C 534.917969 155.816406 534.734375 156.328125 534.578125 156.851562 C 534.417969 157.371094 534.285156 157.898438 534.179688 158.433594 C 534.074219 158.96875 533.996094 159.503906 533.941406 160.046875 C 533.886719 160.589844 533.859375 161.132812 533.859375 161.675781 Z M 450.730469 161.675781 C 450.730469 162.222656 450.757812 162.765625 450.8125 163.304688 C 450.863281 163.847656 450.945312 164.386719 451.050781 164.921875 C 451.15625 165.453125 451.289062 165.980469 451.445312 166.503906 C 451.605469 167.023438 451.789062 167.535156 451.996094 168.039062 C 452.207031 168.542969 452.4375 169.035156 452.695312 169.515625 C 452.949219 169.996094 453.230469 170.460938 453.535156 170.914062 C 453.835938 171.367188 454.160156 171.804688 454.503906 172.222656 C 454.851562 172.644531 455.214844 173.046875 455.601562 173.433594 C 455.984375 173.816406 456.390625 174.183594 456.808594 174.527344 C 457.230469 174.875 457.667969 175.199219 458.121094 175.5 C 458.574219 175.804688 459.039062 176.082031 459.519531 176.339844 C 460 176.597656 460.492188 176.828125 460.996094 177.035156 C 461.496094 177.246094 462.011719 177.429688 462.53125 177.585938 C 463.050781 177.746094 463.578125 177.875 464.113281 177.984375 C 464.648438 178.089844 465.1875 178.167969 465.726562 178.222656 C 466.269531 178.277344 466.8125 178.300781 467.355469 178.300781 C 467.902344 178.300781 468.445312 178.277344 468.988281 178.222656 C 469.527344 178.167969 470.066406 178.089844 470.601562 177.984375 C 471.136719 177.875 471.664062 177.746094 472.183594 177.585938 C 472.703125 177.429688 473.214844 177.246094 473.71875 177.035156 C 474.222656 176.828125 474.714844 176.597656 475.195312 176.339844 C 475.675781 176.082031 476.140625 175.804688 476.59375 175.5 C 477.046875 175.199219 477.484375 174.875 477.90625 174.527344 C 478.324219 174.183594 478.730469 173.816406 479.113281 173.433594 C 479.5 173.046875 479.863281 172.644531 480.210938 172.222656 C 480.554688 171.804688 480.878906 171.367188 481.179688 170.914062 C 481.484375 170.460938 481.761719 169.996094 482.019531 169.515625 C 482.277344 169.035156 482.507812 168.542969 482.71875 168.039062 C 482.925781 167.535156 483.109375 167.023438 483.265625 166.503906 C 483.425781 165.980469 483.558594 165.453125 483.664062 164.921875 C 483.769531 164.386719 483.851562 163.847656 483.902344 163.304688 C 483.957031 162.765625 483.984375 162.222656 483.984375 161.675781 C 483.984375 161.132812 483.957031 160.589844 483.902344 160.046875 C 483.851562 159.503906 483.769531 158.96875 483.664062 158.433594 C 483.558594 157.898438 483.425781 157.371094 483.265625 156.851562 C 483.109375 156.328125 482.925781 155.816406 482.71875 155.3125 C 482.507812 154.8125 482.277344 154.320312 482.019531 153.839844 C 481.761719 153.359375 481.484375 152.890625 481.179688 152.441406 C 480.878906 151.988281 480.554688 151.550781 480.210938 151.128906 C 479.863281 150.707031 479.5 150.304688 479.113281 149.921875 C 478.730469 149.535156 478.324219 149.171875 477.90625 148.824219 C 477.484375 148.480469 477.046875 148.15625 476.59375 147.851562 C 476.140625 147.550781 475.675781 147.269531 475.195312 147.015625 C 474.714844 146.757812 474.222656 146.523438 473.71875 146.316406 C 473.214844 146.109375 472.703125 145.925781 472.183594 145.765625 C 471.664062 145.609375 471.136719 145.476562 470.601562 145.371094 C 470.066406 145.265625 469.527344 145.183594 468.988281 145.128906 C 468.445312 145.078125 467.902344 145.050781 467.355469 145.050781 C 466.8125 145.050781 466.269531 145.078125 465.726562 145.128906 C 465.1875 145.183594 464.648438 145.265625 464.113281 145.371094 C 463.578125 145.476562 463.050781 145.609375 462.53125 145.765625 C 462.011719 145.925781 461.496094 146.109375 460.996094 146.316406 C 460.492188 146.523438 460 146.757812 459.519531 147.015625 C 459.039062 147.269531 458.574219 147.550781 458.121094 147.851562 C 457.667969 148.15625 457.230469 148.480469 456.808594 148.824219 C 456.390625 149.171875 455.984375 149.535156 455.601562 149.921875 C 455.214844 150.304688 454.851562 150.707031 454.503906 151.128906 C 454.160156 151.550781 453.835938 151.988281 453.535156 152.441406 C 453.230469 152.890625 452.949219 153.359375 452.695312 153.839844 C 452.4375 154.320312 452.207031 154.8125 451.996094 155.3125 C 451.789062 155.816406 451.605469 156.328125 451.445312 156.851562 C 451.289062 157.371094 451.15625 157.898438 451.050781 158.433594 C 450.945312 158.96875 450.863281 159.503906 450.8125 160.046875 C 450.757812 160.589844 450.730469 161.132812 450.730469 161.675781 Z M 400.851562 161.675781 C 400.851562 161.132812 400.828125 160.589844 400.773438 160.046875 C 400.71875 159.503906 400.640625 158.96875 400.535156 158.433594 C 400.425781 157.898438 400.296875 157.371094 400.136719 156.851562 C 399.980469 156.328125 399.796875 155.816406 399.585938 155.3125 C 399.378906 154.8125 399.148438 154.320312 398.890625 153.839844 C 398.632812 153.359375 398.355469 152.890625 398.050781 152.441406 C 397.75 151.988281 397.425781 151.550781 397.078125 151.128906 C 396.734375 150.707031 396.367188 150.304688 395.984375 149.921875 C 395.597656 149.535156 395.195312 149.171875 394.773438 148.824219 C 394.355469 148.480469 393.917969 148.15625 393.464844 147.851562 C 393.011719 147.550781 392.546875 147.269531 392.066406 147.015625 C 391.585938 146.757812 391.09375 146.523438 390.589844 146.316406 C 390.085938 146.109375 389.574219 145.925781 389.054688 145.765625 C 388.53125 145.609375 388.003906 145.476562 387.472656 145.371094 C 386.9375 145.265625 386.398438 145.183594 385.855469 145.128906 C 385.316406 145.078125 384.773438 145.050781 384.226562 145.050781 C 383.683594 145.050781 383.140625 145.078125 382.597656 145.128906 C 382.054688 145.183594 381.519531 145.265625 380.984375 145.371094 C 380.449219 145.476562 379.921875 145.609375 379.402344 145.765625 C 378.878906 145.925781 378.367188 146.109375 377.863281 146.316406 C 377.363281 146.523438 376.871094 146.757812 376.390625 147.015625 C 375.910156 147.269531 375.441406 147.550781 374.992188 147.851562 C 374.539062 148.15625 374.101562 148.480469 373.679688 148.824219 C 373.257812 149.171875 372.855469 149.535156 372.472656 149.921875 C 372.085938 150.304688 371.722656 150.707031 371.375 151.128906 C 371.03125 151.550781 370.707031 151.988281 370.402344 152.441406 C 370.101562 152.890625 369.820312 153.359375 369.566406 153.839844 C 369.308594 154.320312 369.074219 154.8125 368.867188 155.3125 C 368.660156 155.816406 368.476562 156.328125 368.316406 156.851562 C 368.160156 157.371094 368.027344 157.898438 367.921875 158.433594 C 367.816406 158.96875 367.734375 159.503906 367.679688 160.046875 C 367.628906 160.589844 367.601562 161.132812 367.601562 161.675781 C 367.601562 162.222656 367.628906 162.765625 367.679688 163.304688 C 367.734375 163.847656 367.816406 164.386719 367.921875 164.921875 C 368.027344 165.453125 368.160156 165.980469 368.316406 166.503906 C 368.476562 167.023438 368.660156 167.535156 368.867188 168.039062 C 369.074219 168.542969 369.308594 169.035156 369.566406 169.515625 C 369.820312 169.996094 370.101562 170.460938 370.402344 170.914062 C 370.707031 171.367188 371.03125 171.804688 371.375 172.222656 C 371.722656 172.644531 372.085938 173.046875 372.472656 173.433594 C 372.855469 173.816406 373.257812 174.183594 373.679688 174.527344 C 374.101562 174.875 374.539062 175.199219 374.992188 175.5 C 375.441406 175.804688 375.910156 176.082031 376.390625 176.339844 C 376.871094 176.597656 377.363281 176.828125 377.863281 177.035156 C 378.367188 177.246094 378.878906 177.429688 379.402344 177.585938 C 379.921875 177.746094 380.449219 177.875 380.984375 177.984375 C 381.519531 178.089844 382.054688 178.167969 382.597656 178.222656 C 383.140625 178.277344 383.683594 178.300781 384.226562 178.300781 C 384.773438 178.300781 385.316406 178.277344 385.855469 178.222656 C 386.398438 178.167969 386.9375 178.089844 387.472656 177.984375 C 388.003906 177.875 388.53125 177.746094 389.054688 177.585938 C 389.574219 177.429688 390.085938 177.246094 390.589844 177.035156 C 391.09375 176.828125 391.585938 176.597656 392.066406 176.339844 C 392.546875 176.082031 393.011719 175.804688 393.464844 175.5 C 393.917969 175.199219 394.355469 174.875 394.773438 174.527344 C 395.195312 174.183594 395.597656 173.816406 395.984375 173.433594 C 396.367188 173.046875 396.734375 172.644531 397.078125 172.222656 C 397.425781 171.804688 397.75 171.367188 398.050781 170.914062 C 398.355469 170.460938 398.632812 169.996094 398.890625 169.515625 C 399.148438 169.035156 399.378906 168.542969 399.585938 168.039062 C 399.796875 167.535156 399.980469 167.023438 400.136719 166.503906 C 400.296875 165.980469 400.425781 165.453125 400.535156 164.921875 C 400.640625 164.386719 400.71875 163.847656 400.773438 163.304688 C 400.828125 162.765625 400.851562 162.222656 400.851562 161.675781 Z M 400.851562 161.675781 "></path></g></g></svg>