<svg xmlns="http://www.w3.org/2000/svg" xmlns:xlink="http://www.w3.org/1999/xlink" width="1000" zoomAndPan="magnify" viewBox="0 0 750 749.999995" height="1000" preserveAspectRatio="xMidYMid meet"><defs><clipPath id="844a9c6e60"><path d="M 130.339844 130.339844 L 619.660156 130.339844 L 619.660156 619.660156 L 130.339844 619.660156 Z M 130.339844 130.339844 "></path></clipPath><clipPath id="c34bfaae4d"><path d="M 152.839844 130.339844 L 597.160156 130.339844 C 603.128906 130.339844 608.851562 132.710938 613.070312 136.929688 C 617.289062 141.148438 619.660156 146.871094 619.660156 152.839844 L 619.660156 597.160156 C 619.660156 603.128906 617.289062 608.851562 613.070312 613.070312 C 608.851562 617.289062 603.128906 619.660156 597.160156 619.660156 L 152.839844 619.660156 C 140.414062 619.660156 130.339844 609.585938 130.339844 597.160156 L 130.339844 152.839844 C 130.339844 140.414062 140.414062 130.339844 152.839844 130.339844 Z M 152.839844 130.339844 "></path></clipPath><clipPath id="c63a9aa31f"><path d="M 622 0 L 749.742188 0 L 749.742188 237 L 622 237 Z M 622 0 "></path></clipPath></defs><g id="4fc9fc9091"><rect x="0" width="750" y="0" height="749.999995" style="fill:#ffffff;fill-opacity:1;stroke:none;"></rect><rect x="0" width="750" y="0" height="749.999995" style="fill:#ffffff;fill-opacity:1;stroke:none;"></rect><g clip-rule="nonzero" clip-path="url(#844a9c6e60)"><g clip-rule="nonzero" clip-path="url(#c34bfaae4d)"><path style=" stroke:none;fill-rule:nonzero;fill:#fec605;fill-opacity:1;" d="M 130.339844 130.339844 L 619.660156 130.339844 L 619.660156 619.660156 L 130.339844 619.660156 Z M 130.339844 130.339844 "></path></g></g><g style="fill:#353535;fill-opacity:1;"><g transform="translate(-21.657052, 745.62491)"><path style="stroke:none" d="M 304.9375 -213.515625 C 313.457031 -193.910156 317.71875 -171.320312 317.71875 -145.75 C 317.71875 -123.164062 313.882812 -101.859375 306.21875 -81.828125 C 295.5625 -54.546875 278.300781 -33.234375 254.4375 -17.890625 C 230.570312 -2.554688 202.226562 5.109375 169.40625 5.109375 C 137.019531 5.109375 108.570312 -2.984375 84.0625 -19.171875 C 59.5625 -35.367188 41.984375 -57.320312 31.328125 -85.03125 C 26.210938 -98.238281 22.800781 -115.070312 21.09375 -135.53125 C 21.09375 -142.769531 24.71875 -146.390625 31.96875 -146.390625 L 101 -146.390625 C 107.820312 -146.390625 111.660156 -142.769531 112.515625 -135.53125 C 113.367188 -125.300781 115.5 -115.925781 118.90625 -107.40625 C 122.738281 -96.320312 129.023438 -87.6875 137.765625 -81.5 C 146.503906 -75.320312 156.835938 -72.234375 168.765625 -72.234375 C 192.628906 -72.234375 209.039062 -82.675781 218 -103.5625 C 223.957031 -116.34375 226.9375 -131.257812 226.9375 -148.3125 C 226.9375 -166.632812 223.53125 -183.039062 216.71875 -197.53125 C 207.34375 -217.5625 191.144531 -227.578125 168.125 -227.578125 C 160.457031 -227.578125 150.65625 -223.53125 138.71875 -215.4375 C 136.164062 -214.15625 134.035156 -213.515625 132.328125 -213.515625 C 128.921875 -213.515625 125.9375 -215.007812 123.375 -218 L 89.5 -263.390625 C 87.789062 -265.515625 86.9375 -268.070312 86.9375 -271.0625 C 86.9375 -273.613281 88.21875 -276.171875 90.78125 -278.734375 L 190.5 -365.671875 C 191.78125 -366.523438 192.207031 -367.484375 191.78125 -368.546875 C 191.351562 -369.609375 190.289062 -370.140625 188.59375 -370.140625 L 40.90625 -370.140625 C 33.664062 -370.140625 30.046875 -373.765625 30.046875 -381.015625 L 30.046875 -436.625 C 30.046875 -443.875 33.664062 -447.5 40.90625 -447.5 L 301.09375 -447.5 C 308.34375 -447.5 311.96875 -443.875 311.96875 -436.625 L 311.96875 -373.984375 C 311.96875 -368.867188 310.050781 -364.390625 306.21875 -360.546875 L 222.46875 -284.484375 C 219.914062 -281.921875 220.769531 -280.210938 225.03125 -279.359375 C 262.101562 -272.117188 288.738281 -250.171875 304.9375 -213.515625 Z M 304.9375 -213.515625 "></path></g></g><path style=" stroke:none;fill-rule:nonzero;fill:#353535;fill-opacity:1;" d="M 328.082031 47.921875 C 327.808594 50.0625 325.757812 55.4375 324.722656 58.136719 C 324.199219 59.480469 323.6875 60.847656 322.695312 63.398438 L 322.625 63.578125 L 260.820312 221.074219 L 260.808594 221.085938 C 256.277344 228.15625 252.054688 234.65625 250.164062 235.296875 C 248.195312 235.980469 240.417969 233.15625 232.183594 230.183594 C 229.085938 229.058594 226 227.90625 222.914062 226.757812 C 217.085938 224.570312 211.0625 222.316406 204.992188 220.300781 C 201.292969 219.058594 200.792969 218.242188 201.429688 214.390625 C 205.871094 187.632812 210.300781 160.878906 214.730469 134.109375 C 221.71875 91.855469 228.9375 48.152344 236.125 5.179688 C 236.660156 1.9375 237.386719 0.546875 237.71875 0.0585938 C 238.332031 0.0898438 240.027344 0.351562 243.308594 2.074219 C 261.730469 11.808594 280.425781 21.828125 298.496094 31.519531 C 305.410156 35.230469 312.332031 38.941406 319.253906 42.640625 C 321.695312 43.949219 326.519531 46.535156 328.082031 47.921875 Z M 328.082031 47.921875 "></path><path style=" stroke:none;fill-rule:nonzero;fill:#353535;fill-opacity:1;" d="M 518.777344 367.410156 C 513.5625 374.925781 507.0625 379.582031 499.890625 380.960938 C 493.136719 382.246094 485.851562 380.59375 478.652344 376.175781 L 489.039062 365.792969 C 493.945312 360.886719 497.316406 354.875 498.886719 348.328125 Z M 518.777344 367.410156 "></path><path style=" stroke:none;fill-rule:nonzero;fill:#353535;fill-opacity:1;" d="M 481.726562 339.09375 C 481.820312 344.308594 479.839844 349.214844 476.148438 352.902344 L 458.410156 370.644531 C 434.578125 375.289062 428.292969 373.21875 419.183594 354.78125 L 449.480469 325.691406 C 455.871094 319.566406 465.492188 318.734375 472.742188 323.253906 L 478.414062 328.6875 C 480.507812 331.726562 481.660156 335.3125 481.726562 339.09375 Z M 481.726562 339.09375 "></path><path style=" stroke:none;fill-rule:nonzero;fill:#353535;fill-opacity:1;" d="M 387.414062 273.550781 C 387.640625 278.253906 385.933594 282.671875 382.632812 285.996094 L 361.910156 306.722656 C 349.125 303.851562 341.789062 296.460938 338.671875 283.09375 L 359.152344 262.613281 C 365.234375 256.53125 374.808594 256.085938 381.4375 261.5625 C 385.070312 264.582031 387.199219 268.839844 387.414062 273.550781 Z M 387.414062 273.550781 "></path><path style=" stroke:none;fill-rule:nonzero;fill:#353535;fill-opacity:1;" d="M 440.121094 299.183594 C 440.359375 304.558594 438.390625 309.613281 434.589844 313.429688 L 404.4375 343.566406 C 387.722656 342.839844 378.648438 335.140625 375.300781 319.097656 L 395.535156 298.863281 L 407.773438 286.613281 C 414.777344 279.621094 425.765625 279.132812 433.347656 285.484375 C 437.480469 288.945312 439.882812 293.808594 440.121094 299.183594 Z M 440.121094 299.183594 "></path><g clip-rule="nonzero" clip-path="url(#c63a9aa31f)"><path style=" stroke:none;fill-rule:nonzero;fill:#353535;fill-opacity:1;" d="M 744.988281 220.527344 C 736.199219 223.488281 727.398438 226.710938 718.882812 229.832031 C 715.054688 231.230469 711.230469 232.632812 707.394531 234.007812 C 705.445312 234.714844 700.492188 236.503906 698.613281 236.660156 C 698.207031 236.25 697.339844 235.238281 695.78125 232.757812 L 627.007812 61.632812 C 626.996094 61.609375 626.996094 61.597656 626.984375 61.574219 C 624.921875 56.554688 622.382812 50.347656 622.316406 48.253906 C 623.839844 46.488281 630.855469 42.800781 635.546875 40.328125 C 648.949219 33.304688 662.484375 26.039062 675.582031 19.015625 C 685.78125 13.539062 696.328125 7.867188 706.734375 2.367188 C 710.207031 0.523438 712.050781 0.148438 712.792969 0.0664062 C 713.15625 0.671875 713.894531 2.230469 714.476562 5.714844 C 720.566406 42.164062 726.695312 79.226562 732.625 115.070312 C 738.082031 147.996094 743.523438 180.914062 749.023438 213.820312 C 749.738281 218.183594 749.179688 219.125 744.988281 220.527344 Z M 744.988281 220.527344 "></path></g><path style=" stroke:none;fill-rule:nonzero;fill:#353535;fill-opacity:1;" d="M 649.492188 247.558594 C 650.699219 277.867188 645.90625 285.019531 626.6875 290.199219 L 553.0625 216.574219 C 549.5 213.023438 543.738281 213.023438 540.171875 216.574219 C 536.621094 220.140625 536.621094 225.902344 540.171875 229.464844 L 613.980469 303.269531 C 610.265625 318.335938 601.441406 325.816406 585.902344 327.214844 L 505.023438 246.339844 C 501.460938 242.785156 495.699219 242.785156 492.136719 246.339844 C 488.582031 249.902344 488.582031 255.664062 492.136719 259.226562 L 570.929688 338.019531 C 563.289062 354.203125 554.757812 359.050781 537.339844 357.21875 C 536.414062 357.117188 535.460938 357.117188 534.480469 357.21875 L 492.179688 316.660156 C 490.960938 315.066406 489.585938 313.550781 488.070312 312.152344 C 486.839844 311.011719 485.566406 309.976562 484.230469 309.03125 L 447.980469 274.257812 C 447.957031 274.222656 447.933594 274.199219 447.886719 274.175781 C 447 273.242188 446.054688 272.355469 445.050781 271.511719 C 433.402344 261.765625 417.65625 260.230469 404.789062 266.617188 C 403.09375 259.191406 398.996094 252.453125 393.050781 247.535156 C 379.148438 236.023438 359.039062 236.964844 346.277344 249.730469 L 325.804688 270.191406 C 313.609375 267.1875 306.332031 259.867188 301.234375 245.847656 C 297.976562 236.921875 290.417969 230.964844 283.09375 225.191406 C 281.96875 224.304688 280.863281 223.4375 279.804688 222.574219 L 336.382812 78.390625 C 351.777344 83.21875 367.160156 83.046875 382.210938 77.84375 C 403.550781 70.476562 423.792969 68.632812 443.5625 72.289062 C 434.359375 77.308594 425.21875 82.421875 416.28125 87.417969 C 411.234375 90.230469 406.191406 93.054688 401.136719 95.867188 C 369.480469 113.449219 375.734375 135.296875 379.878906 143.859375 C 386.050781 156.625 399.839844 169.480469 430.46875 158.308594 C 439.097656 155.15625 447.84375 151.910156 456.292969 148.769531 C 469.589844 143.828125 483.347656 138.726562 496.90625 133.910156 C 520.019531 125.710938 539.457031 130.039062 556.320312 147.128906 C 566.671875 157.613281 577.269531 168.171875 587.519531 178.371094 C 599.03125 189.839844 610.929688 201.691406 622.484375 213.453125 C 631.367188 222.484375 640.121094 231.898438 648.605469 240.996094 C 649.230469 241.679688 649.871094 242.363281 650.496094 243.035156 C 649.789062 244.40625 649.4375 245.953125 649.492188 247.558594 Z M 649.492188 247.558594 "></path><path style=" stroke:none;fill-rule:nonzero;fill:#353535;fill-opacity:1;" d="M 674.484375 228.589844 C 671.671875 230.070312 668.847656 231.539062 666.046875 233.007812 C 664.683594 231.539062 663.304688 230.070312 661.9375 228.589844 C 653.375 219.402344 644.527344 209.890625 635.476562 200.679688 C 623.851562 188.851562 611.917969 176.964844 600.371094 165.464844 C 590.148438 155.285156 579.582031 144.761719 569.289062 134.332031 C 547.257812 112.003906 520.851562 106.082031 490.8125 116.742188 C 477.128906 121.605469 463.304688 126.738281 449.949219 131.691406 C 441.523438 134.824219 432.800781 138.066406 424.226562 141.1875 C 402.636719 149.066406 398.503906 140.527344 396.285156 135.925781 C 394.394531 132.035156 389.976562 122.914062 409.980469 111.789062 C 415.046875 108.976562 420.117188 106.152344 425.171875 103.316406 C 438.824219 95.6875 452.929688 87.796875 466.980469 80.375 C 468.496094 79.554688 470.054688 78.78125 471.636719 78.027344 C 471.671875 78.003906 471.707031 77.996094 471.742188 77.972656 C 498.554688 65.140625 525.996094 63.214844 553.300781 72.253906 C 570.265625 77.878906 585.796875 80.804688 600.769531 81.203125 C 601.066406 81.226562 601.375 81.214844 601.679688 81.203125 C 602 81.183594 602.304688 81.148438 602.601562 81.101562 C 606.496094 80.554688 610.355469 79.679688 614.148438 78.484375 Z M 674.484375 228.589844 "></path></g></svg>